<svg xmlns="http://www.w3.org/2000/svg" xmlns:xlink="http://www.w3.org/1999/xlink"
	 viewBox="0 0 864 787.6">
	<path d="M810.1,441.8c-6-5.3-39.3-40.4-45.1-37.3c-0.1,0,8.6,53,8.8,58.3c2,38.1-4.9,79.2-19.7,114.3
		c-5.8-12.1-11.5-23.9-17.8-36.9c-6.2,19-12.6,36.3-24.5,52.7c-5.6,7.6-11.7,14.8-18,21.8c-2.1,2.4-18.9,17-17.9,19.9
		c-1.6,1.1-3.3,2.2-4.9,3.3c-12.7,9.2-25.1,18.7-38.7,26.7c-13.1,7.7-26.9,11.8-41,17.1c-13,4.9-25.3,13.9-39.5,14.7
		c-7.9,0.4-10.8,0.6-18.4,4.6c-6,3.1-13.2,8.1-20.2,8.5c3.9-5.9,7.7-11.4,11.4-18.8c-14.4,7.5-26.9,15.1-42.4,20.2
		c-15.9,5.3-29.7,13.9-46.5,15.8c6.8-7.1,12.8-13.9,18.3-21c0-0.3,0-0.6,0-0.9c-0.1,0.1-0.3,0.1-0.4,0.2c0.2,0.3,0.4,0.6,0.5,0.8
		c-2.9-2.9-18.9,13.8-23.1,15.4c-8.4,3.3-18.6-7-25.7-11.7c-0.2-0.2-0.3-0.4-0.5-0.7c-0.1,0.2-0.1,0.4-0.2,0.6c0.2,0,0.5,0,0.7-0.1
		c2.7,6.8,8.6,11.1,13.4,17.1c-12.3-0.7-21.8-4.2-33-8.9c-8.5-3.5-20.9-10.4-30-10.8c-6.9-0.3-7.7,1-15.3-2.5
		c-6.2-2.8-19-14-25.3-13.5c3.4,6,6.7,11.6,10.5,18.4c-8.7-3.5-16.6-8-24.9-12.4c-9.5-5-18.8-7.1-29-10c-22-6.3-42.9-19.5-62-31.8
		c-0.1-0.3-0.2-0.4-0.5-0.3c-2.2-2.3-4.9-4-7.5-5.7c0-0.2-0.2-0.3-0.4-0.3c-0.6-0.7-1.2-1.4-2.2-1.4l0,0c-0.6-1.4-1.7-2-3.1-1.9l0,0
		c-6.1-7.1-13.6-12.7-20.3-19.2c-4.8-5.3-9.5-10.5-14.3-15.8c0,0,0,0,0,0c-0.3-0.4-0.6-0.7-0.9-1.1c-13.2-18.4-26.9-35.9-34.5-57.5
		c-3.4-9.7-3.7-13.1-9-2.3c-3,6.2-8.6,24.2-14.3,27.6C82,523.5,78,468.5,89.7,411.8C79.8,422.8,70,433.9,60.1,445
		c-0.3-0.2-0.7-0.5-1-0.7c15.5-49.9,36.5-97.1,69.1-138.8c-40.9-11-73.5-41.9-82.4-84.5c-7.8-37.4,3.9-77.7,32.4-103.2
		c31.6-28.3,79.4-32.4,116.1-11.6c9,5.1,17.4,11.8,24.4,19.4c6.2,6.8,9.5,19.3,18.5,13.8c19-11.7,35.5-24.8,56.5-33.4
		c24.5-10,48.9-14.1,75.1-16.3c26.2-2.2,47.8-22,63.1-42.2c0.9,15.4-3.7,28.4-10,41c-0.4,0.2-0.9,0.5-0.5,1c0.2,0.2,0.8,0,1.2-0.1
		c18.5-8.6,35.2-19.4,45-38.5c4.7,6.6,4,19.8-1.6,31.4c6.2-1.6,14.4-10.7,28.4-31.9c2.1,8,2.8,16.4,1,24.5c-1.8,8.1-5,8.8,1.6,11.9
		c5.7,2.7,17.1,1.5,23.6,2.8c8.6,1.7,17.1,3.8,25.4,6.4c31.6,9.5,60.5,25.5,86,46.4c23.2-29.7,52-51.2,91.3-49.9
		c33.7,1.2,65.6,20.3,82.4,49.8c17.8,31.3,19.1,70,4.4,102.9c-14,31.4-41.5,49.6-73.1,59c32.6,40.1,56.9,87.9,73.9,136.7
		C810.6,441.4,810.3,441.6,810.1,441.8z M769.5,391c0.3,0.5,0.6,1,0.9,1.5c0.7-0.8,0.4-1.5-0.2-2.2c-9-18.2-18.4-36-29.2-53.1
		c-11.1-17.6-25.1-33.4-35.9-51.1c13.9-5.3,29.2-5.2,43.1-11.6c11.2-5.1,21.4-12.4,29.1-22.2c8.6-10.8,14.2-24.3,15.4-38.2
		c0.9-10.1-1.5-31.9-6.7-43.9c-5.2-12-8.7-18.4-19.9-26.9c-11.2-8.5-50.9-19.4-70.9-16.3c-11.8,1.8-23.2,5.7-33.3,12.1
		c-4.8,3.1-8.9,6.8-13.1,10.6c-5.5,4.8-5.7,4.8-12,1.3c-43.1-23.9-92.5-44.8-142.5-45.8c-22.4-0.4-45.8,2.1-65.5,13.8
		c-7.3,4.4-6.8,5.5-14.4,1.8c-4.9-2.4-9.5-4.8-14.7-6.6c-10.9-3.7-22.3-5.3-33.8-5.4c-49.3-0.1-97.2,20-139.8,43.1
		c-6.4,3.4-6.3,3.7-11.4-1.6c-3.7-3.7-7.2-7.5-11.2-10.9c-8.1-6.9-17.1-12.7-26.9-16.8c-19.8-8.3-45-10.4-65.5-3.7
		c6.1,2.4,12.4,2,18.4,4.8c-22.9,3.8-32.8,2.8-55,33.2s-3.3,80.6,18.5,105.4c17.2,19.5,42.9,25.3,67.9,24.5
		c-24.3,31.1-49.7,63.5-64.5,100.6c9.2-8.9,18.5-17.8,27.7-26.7c0.4,0.2,0.7,0.4,1.1,0.6c-13.7,32.5-23,69.2-22.2,104.7
		c0.3,14.1,1.3,28.3,3,42.4c0.9,7.5,1,20.2,6,26.5c8.3-13.4,13.7-28,19.5-42.6c4.5,29.6,11.7,58.1,26.4,85.4
		c3.3-14.3,6.4-27.3,9.4-40.3c13.1,36.6,24.2,69,55.3,94.3c15.3,12.5,33,21.7,51,29.3c5.2,2.2,19.7,10.9,24.6,9.6
		c5.4-1.4-3.9-21.6-5.2-25.8c17.2,14.3,97.2,58.3,130.2,60.9c2.3,1.2,6.9,1,8.6,0c20.3-11.6,115.3-46.6,132.1-62
		c-2.5,10-6.9,18-10.1,26.3c0,0.4,0,0.8,0,1.1c0.3-0.2,0.7-0.3,1-0.5c32.8-9.4,66.5-25.1,91.1-49.5c11-11,20.2-23.7,27.2-37.6
		c7.4-14.8,8.7-32.7,16.4-46.8c3.6,14.5,7.2,28.6,11,43.9c13.6-28.8,20.9-58.1,25.6-88.2c7,14.4,12.4,29.1,21.5,42.5
		c15.8-61.4,8.5-119.9-16.2-176.9C745.3,367.1,756.4,380.9,769.5,391z"/>
	<path d="M820.4,441.2c0.1,0.4,0.3,1.1,0.1,1.2c-0.6,0.4-0.7-0.2-0.8-0.6C819.9,441.6,820.1,441.4,820.4,441.2z"
		/>
	<path d="M162,609.5c0.3,0.4,0.6,0.7,0.9,1.1C162.6,610.2,162.3,609.8,162,609.5z"/>
	<path d="M779.3,390.3c0.6,0.7,0.9,1.4,0.2,2.2c-0.3-0.5-0.6-1-0.9-1.5C778.8,390.8,779,390.5,779.3,390.3z"/>
	<path d="M561.1,670.8c-0.3,0.2-0.7,0.3-1,0.5c0-0.4,0-0.8,0-1.1C560.4,670.4,560.8,670.6,561.1,670.8z"/>
	<path d="M514.3,676.3c-0.4,0-1.1,0.2-1.3,0C512.6,675.8,514.1,675.9,514.3,676.3z"/>
	<path d="M354.6,677.2c-0.1,0.1-0.8-0.1-1.2-0.2C353.6,676.8,355,676.7,354.6,677.2z"/>
	<path d="M459.3,705.8c-0.2-0.3-0.4-0.6-0.5-0.8c0.1-0.1,0.3-0.1,0.4-0.2c0,0.3,0,0.6,0,0.9
		C459.2,705.7,459.3,705.8,459.3,705.8z"/>
	<path d="M772.8,144.9C773,145.1,772.8,145.1,772.8,144.9C772.8,144.9,772.8,144.9,772.8,144.9z"/>
	<path d="M427.3,89.5c-0.4,0-1.1,0.3-1.2,0.1c-0.4-0.5,0.1-0.7,0.5-1C426.9,89,427.1,89.2,427.3,89.5z"/>
	<path d="M410,709.4c-0.2,0-0.5,0-0.7,0.1c0.1-0.2,0.1-0.4,0.2-0.6c0.2,0.2,0.3,0.4,0.5,0.7
		C409.9,709.5,410,709.4,410,709.4z"/>
	<path d="M550.9,711.6c-0.3,0.2-0.7,0.5-1,0.7c-0.1-0.1-0.2-0.2-0.2-0.4C550,711.8,550.4,711.6,550.9,711.6
		C550.8,711.5,550.9,711.6,550.9,711.6z"/>
	<path d="M301.9,711.5c0.1,0.1,0.3,0.1,0.4,0.2C302.2,711.7,302,711.6,301.9,711.5
		C301.9,711.6,301.9,711.5,301.9,711.5z"/>
	<path sd="M427.9,739.5c-0.1,0.1-0.1,0.2-0.2,0.4C427.8,739.8,427.8,739.6,427.9,739.5
		C427.9,739.5,427.9,739.5,427.9,739.5z"/>
	<path d="M295.8,503.8c-12.3-43.3,19.3-78.6,45.8-108.9c26.4-30.1,52-55.6,94.6-53.8
		c39.6,1.7,61.9,28.8,87.3,55.4c13.7,14.4,28,29.3,37.9,46.7c11,19.6,10.3,36.8,8.6,58.4c-10.3,32.2-41.4,36-70.5,27
		c-13.6-4.2-26.4-11.6-37.5-20.4c-5.9-4.6-11.3-9.7-16.4-15.2c-2.5-2.7-8.9-13.9-12.6-13.9c-3.3,0-12,13.2-14.1,15.4
		c-5,5.3-10.4,10.3-16.3,14.7c-11.7,8.9-25.1,15.3-39.2,19.5c-12.8,3.8-30.1,8.1-43,2.7C308.4,526.4,300.3,515.6,295.8,503.8z
		 M473.4,433.7c15.2,0,27.8-10.1,25.4-26.4c-2.3-15.5-16.3-23.8-30.3-27.5c-17.5-4.6-37.9-3.7-55.9-3c-15.2,0.6-31.7,1.2-41.4,14.8
		c-8.6,12-8.6,29.5,3.9,39c6.4,4.9,11.8,3,19,4c7.3,1,8.4,5.2,12.9,10.3c8.8,9.9,20.3,15.2,33.6,12.1c6.6-1.5,11.3-4.7,15.9-9.5
		C460.6,443.2,465.8,431,473.4,433.7z"/>
	<path d="M549.7,541.9C538,571.4,529,608.4,508.2,633c-18.7,22-48.2,30.5-76.2,30.3c-26.6-0.1-53.7-7.7-72-28.1
		c-21.7-24.3-30-61.9-42-91.5c4.2,0,6.9,1.1,12.2,2c1.3,0.5,1.6,1.8,2.6,2.5c0.6,1.5,1.1,3.1,1.8,4.6c7.3,15.8,15,31.5,21.9,47.4
		c9.3,21.4,25.8,34.9,47.4,41.7c16.1,5,32.9,4.2,49.5,1.8c25.2-3.7,43.7-16.9,55.1-39.5c9-17.8,17-36,25.4-54.1
		c0.6-1.3,1.4-2.7,1.2-4.3C539.9,544.6,545.1,544.5,549.7,541.9z"/>
	<path d="M629.3,356.7c-3.1-15.1-5.7-29.5-18.7-39.4c-11.1-8.5-26.5-10.5-40-7.5c-29,6.6-38.7,39.1-34.4,65.5
		c-7.8-6.7-18.3-7.9-23.7-16.8c-4.7-7.6,0.3-16.8,3.3-24.6c9-23.8,27.8-41.4,53.4-45.4c22-3.5,41.9,5.1,56.1,22
		c6.1,7.1,11.3,15.6,14.1,24.6C641.4,341.5,639.7,355.7,629.3,356.7z"/>
	<path d="M327.3,374.4c6.6-30.5-9.9-66.8-44.4-67.2c-29.5-0.3-46.4,24-47.1,51.5c-9.9-9.5-14.7-8.6-10.9-21.5
		c3.2-11,8.1-21.5,15.9-29.9c13.5-14.7,34-22,53.8-19.2c20.2,2.8,37.3,15.7,47.4,33.1c4.5,7.8,13.5,25,11.2,34.1
		C351,364.1,334.1,368.4,327.3,374.4z"/>
	<path d="M360.4,303.3c0.5,0.7,0.9,1.4,0.1,2.2c-0.2-0.6-0.4-1.1-0.6-1.7C360,303.6,360.2,303.5,360.4,303.3z"/>
	<path d="M660.5,438.2c0.4,0.7,0.9,1.7,0.2,2c-1.2,0.5-0.7-0.8-0.9-1.4C660,438.6,660.2,438.4,660.5,438.2z"/>
	<path d="M631.9,429.7c0.2,0.2,0.4,0.3,0.7,0.5c-0.1,0.1-0.3,0.2-0.4,0.3c-0.1-0.2-0.3-0.4-0.4-0.6
		C631.7,429.8,631.9,429.7,631.9,429.7z"/>
	<path d="M335.5,647.5c-0.1-0.1-0.2-0.1-0.3-0.2c0.1-0.2,0.2-0.3,0.3-0.5C335.9,647.1,335.9,647.3,335.5,647.5z"
		/>
	<path d="M584.9,331.8c17.3,0.1,16.3,25.2-0.2,25C568.4,356.7,567.6,331.7,584.9,331.8z"/>
	<path d="M283,330.8c17.4,0,16.6,25.7-0.6,25C266.2,355.1,265.9,330.8,283,330.8z"/>
	<path d="M238.4,419.2c0.4-0.1,0.8-0.1,1.1-0.2c-0.2,0.3-0.3,0.6-0.5,0.9C238.8,419.6,238.6,419.4,238.4,419.2z"
		/>
	<path d="M395.5,546.2c2.2,12.8-1.6,40.5,11.9,47.7c7.2,3.8,18.6,1.7,26.5,1.7c7.7,0,17.6,1.7,24.8-1.7
		c14.6-6.8,9.9-27.6,11.9-40.5c1.5-9.6,2.4-6.1,7.1,0.7c4.6,6.7,9.5,13.4,11.9,21.3c13.9,46.2-48.6,42.9-75.6,42.1
		c-15.2-0.5-29.1-6.4-35.4-21.3C370.5,577.3,385.7,561,395.5,546.2z"/>
</svg>
